# xmcd
#
# Track frame offsets:
#	150
#	15285
#	28740
#	43578
#	60682
#	73767
#	101121
#	116158
#	136453
#	152450
#	165860
#	181883
#	194463
#	206701
#	228994
#	241001
#	254751
#	274184
#	291921
#	306088
#
# Disc length: 4247 seconds
#
# Revision: 0
# Processed by: cddbd v1.5.2PL0 Copyright (c) Steve Scherf et al.
# Submitted via: EZCDAudioConverter 3.0.3.2
#
DISCID=1d109514
DTITLE=Романтический саксофон
DYEAR=1900
DGENRE=
TTITLE0=Georg Saxon - Only You
TTITLE1=Sam Tylor - Autumn Leaves
TTITLE2=Sil Austin - Summertime
TTITLE3=Ben Webster - Thats All
TTITLE4=Fausto Papetti - Sleepy Shores
TTITLE5=Bob James and David Sanborn - Maputo
TTITLE6=Joshua Redman and Pat Metheny - Tears in Heaven
TTITLE7=Kirk Whalum - If Only For One Night
TTITLE8=Gerry Mulligan - The Shadow Of Your Smile
TTITLE9=George Katsaros - Abrazame
TTITLE10=Fausto Papetti - Pette Fleur
TTITLE11=Max Greger - Georgia
TTITLE12=Andre Moss - Are You Lonesome Tonight
TTITLE13=Kenny G - Songbird
TTITLE14=Sil Austin - I Left My Heart In San Francisco
TTITLE15=Antony Donadio - Good Bye My Love, Good Bye
TTITLE16=Candy Dulfer - Lily Was Here
TTITLE17=Stuart McDonald - Yesterday Once More
TTITLE18=Fausto Papetti - The Windmills Of Your Mind
TTITLE19=Sam Tylor - Cry Me A River
EXTD=
EXTT0=
EXTT1=
EXTT2=
EXTT3=
EXTT4=
EXTT5=
EXTT6=
EXTT7=
EXTT8=
EXTT9=
EXTT10=
EXTT11=
EXTT12=
EXTT13=
EXTT14=
EXTT15=
EXTT16=
EXTT17=
EXTT18=
EXTT19=
PLAYORDER=
